<svg xmlns="http://www.w3.org/2000/svg" viewBox="0 0 700 700" role="img" aria-labelledby="titel beschreibung"><title id="titel">Pinguin aus sichtbaren Dreiecken</title><desc id="beschreibung">Dieselbe Geometrie wie beim gefüllten WebGL-Pinguin; feine dunkle Konturen zeigen die einzelnen Dreiecke seiner Farbflächen.</desc><g stroke="#243849" stroke-width="1.1" stroke-opacity="0.88" stroke-linejoin="round"><polygon points="350,651.0 518.0,651.0 514.77,646.22" fill="#85adb8"/><polygon points="350,651.0 514.77,646.22 505.21,641.62" fill="#85adb8"/><polygon points="350,651.0 505.21,641.62 489.69,637.39" fill="#85adb8"/><polygon points="350,651.0 489.69,637.39 468.79,633.68" fill="#85adb8"/><polygon points="350,651.0 468.79,633.68 443.34,630.63" fill="#85adb8"/><polygon points="350,651.0 443.34,630.63 414.29,628.36" fill="#85adb8"/><polygon points="350,651.0 414.29,628.36 382.78,626.97" fill="#85adb8"/><polygon points="350,651.0 382.78,626.97 350.0,626.5" fill="#85adb8"/><polygon points="350,651.0 350.0,626.5 317.22,626.97" fill="#85adb8"/><polygon points="350,651.0 317.22,626.97 285.71,628.36" fill="#85adb8"/><polygon points="350,651.0 285.71,628.36 256.66,630.63" fill="#85adb8"/><polygon points="350,651.0 256.66,630.63 231.21,633.68" fill="#85adb8"/><polygon points="350,651.0 231.21,633.68 210.31,637.39" fill="#85adb8"/><polygon points="350,651.0 210.31,637.39 194.79,641.62" fill="#85adb8"/><polygon points="350,651.0 194.79,641.62 185.23,646.22" fill="#85adb8"/><polygon points="350,651.0 185.23,646.22 182.0,651.0" fill="#85adb8"/><polygon points="350,651.0 182.0,651.0 185.23,655.78" fill="#85adb8"/><polygon points="350,651.0 185.23,655.78 194.79,660.38" fill="#85adb8"/><polygon points="350,651.0 194.79,660.38 210.31,664.61" fill="#85adb8"/><polygon points="350,651.0 210.31,664.61 231.21,668.32" fill="#85adb8"/><polygon points="350,651.0 231.21,668.32 256.66,671.37" fill="#85adb8"/><polygon points="350,651.0 256.66,671.37 285.71,673.64" fill="#85adb8"/><polygon points="350,651.0 285.71,673.64 317.22,675.03" fill="#85adb8"/><polygon points="350,651.0 317.22,675.03 350.0,675.5" fill="#85adb8"/><polygon points="350,651.0 350.0,675.5 382.78,675.03" fill="#85adb8"/><polygon points="350,651.0 382.78,675.03 414.29,673.64" fill="#85adb8"/><polygon points="350,651.0 414.29,673.64 443.34,671.37" fill="#85adb8"/><polygon points="350,651.0 443.34,671.37 468.79,668.32" fill="#85adb8"/><polygon points="350,651.0 468.79,668.32 489.69,664.61" fill="#85adb8"/><polygon points="350,651.0 489.69,664.61 505.21,660.38" fill="#85adb8"/><polygon points="350,651.0 505.21,660.38 514.77,655.78" fill="#85adb8"/><polygon points="350,651.0 514.77,655.78 518.0,651.0" fill="#85adb8"/><polygon points="227.5,269.5 147.0,332.5 115.5,444.5" fill="#14415f"/><polygon points="227.5,269.5 115.5,444.5 157.5,511.0" fill="#14415f"/><polygon points="227.5,269.5 157.5,511.0 210.0,437.5" fill="#1c567a"/><polygon points="472.5,269.5 553.0,332.5 584.5,444.5" fill="#14415f"/><polygon points="472.5,269.5 584.5,444.5 542.5,511.0" fill="#14415f"/><polygon points="472.5,269.5 542.5,511.0 490.0,437.5" fill="#1c567a"/><polygon points="255.5,602.0 224.0,647.5 255.5,640.5" fill="#f88c1d"/><polygon points="255.5,602.0 255.5,640.5 280.0,665.0" fill="#f88c1d"/><polygon points="255.5,602.0 280.0,665.0 304.5,630.0" fill="#f88c1d"/><polygon points="444.5,602.0 476.0,647.5 444.5,640.5" fill="#f88c1d"/><polygon points="444.5,602.0 444.5,640.5 420.0,665.0" fill="#f88c1d"/><polygon points="444.5,602.0 420.0,665.0 395.5,630.0" fill="#f88c1d"/><polygon points="350,367.5 521.5,367.5 520.03,332.32" fill="#123650"/><polygon points="350,367.5 520.03,332.32 515.66,297.75" fill="#123650"/><polygon points="350,367.5 515.66,297.75 508.45,264.37" fill="#123650"/><polygon points="350,367.5 508.45,264.37 498.52,232.75" fill="#123650"/><polygon points="350,367.5 498.52,232.75 486.06,203.44" fill="#123650"/><polygon points="350,367.5 486.06,203.44 471.27,176.93" fill="#123650"/><polygon points="350,367.5 471.27,176.93 454.4,153.69" fill="#123650"/><polygon points="350,367.5 454.4,153.69 435.75,134.11" fill="#123650"/><polygon points="350,367.5 435.75,134.11 415.63,118.51" fill="#123650"/><polygon points="350,367.5 415.63,118.51 394.39,107.18" fill="#123650"/><polygon points="350,367.5 394.39,107.18 372.39,100.31" fill="#123650"/><polygon points="350,367.5 372.39,100.31 350.0,98.0" fill="#123650"/><polygon points="350,367.5 350.0,98.0 327.61,100.31" fill="#123650"/><polygon points="350,367.5 327.61,100.31 305.61,107.18" fill="#123650"/><polygon points="350,367.5 305.61,107.18 284.37,118.51" fill="#123650"/><polygon points="350,367.5 284.37,118.51 264.25,134.11" fill="#123650"/><polygon points="350,367.5 264.25,134.11 245.6,153.69" fill="#123650"/><polygon points="350,367.5 245.6,153.69 228.73,176.93" fill="#123650"/><polygon points="350,367.5 228.73,176.93 213.94,203.44" fill="#123650"/><polygon points="350,367.5 213.94,203.44 201.48,232.75" fill="#123650"/><polygon points="350,367.5 201.48,232.75 191.55,264.37" fill="#123650"/><polygon points="350,367.5 191.55,264.37 184.34,297.75" fill="#123650"/><polygon points="350,367.5 184.34,297.75 179.97,332.32" fill="#123650"/><polygon points="350,367.5 179.97,332.32 178.5,367.5" fill="#123650"/><polygon points="350,367.5 178.5,367.5 179.97,402.68" fill="#123650"/><polygon points="350,367.5 179.97,402.68 184.34,437.25" fill="#123650"/><polygon points="350,367.5 184.34,437.25 191.55,470.63" fill="#123650"/><polygon points="350,367.5 191.55,470.63 201.48,502.25" fill="#123650"/><polygon points="350,367.5 201.48,502.25 213.94,531.56" fill="#123650"/><polygon points="350,367.5 213.94,531.56 228.73,558.07" fill="#123650"/><polygon points="350,367.5 228.73,558.07 245.6,581.31" fill="#123650"/><polygon points="350,367.5 245.6,581.31 264.25,600.89" fill="#123650"/><polygon points="350,367.5 264.25,600.89 284.37,616.49" fill="#123650"/><polygon points="350,367.5 284.37,616.49 305.61,627.82" fill="#123650"/><polygon points="350,367.5 305.61,627.82 327.61,634.69" fill="#123650"/><polygon points="350,367.5 327.61,634.69 350.0,637.0" fill="#123650"/><polygon points="350,367.5 350.0,637.0 372.39,634.69" fill="#123650"/><polygon points="350,367.5 372.39,634.69 394.39,627.82" fill="#123650"/><polygon points="350,367.5 394.39,627.82 415.63,616.49" fill="#123650"/><polygon points="350,367.5 415.63,616.49 435.75,600.89" fill="#123650"/><polygon points="350,367.5 435.75,600.89 454.4,581.31" fill="#123650"/><polygon points="350,367.5 454.4,581.31 471.27,558.07" fill="#123650"/><polygon points="350,367.5 471.27,558.07 486.06,531.56" fill="#123650"/><polygon points="350,367.5 486.06,531.56 498.52,502.25" fill="#123650"/><polygon points="350,367.5 498.52,502.25 508.45,470.63" fill="#123650"/><polygon points="350,367.5 508.45,470.63 515.66,437.25" fill="#123650"/><polygon points="350,367.5 515.66,437.25 520.03,402.68" fill="#123650"/><polygon points="350,367.5 520.03,402.68 521.5,367.5" fill="#123650"/><polygon points="350,448.0 465.5,448.0 464.08,422.27" fill="#f8e8c2"/><polygon points="350,448.0 464.08,422.27 459.85,397.17" fill="#f8e8c2"/><polygon points="350,448.0 459.85,397.17 452.91,373.32" fill="#f8e8c2"/><polygon points="350,448.0 452.91,373.32 443.44,351.31" fill="#f8e8c2"/><polygon points="350,448.0 443.44,351.31 431.67,331.68" fill="#f8e8c2"/><polygon points="350,448.0 431.67,331.68 417.89,314.92" fill="#f8e8c2"/><polygon points="350,448.0 417.89,314.92 402.44,301.43" fill="#f8e8c2"/><polygon points="350,448.0 402.44,301.43 385.69,291.55" fill="#f8e8c2"/><polygon points="350,448.0 385.69,291.55 368.07,285.53" fill="#f8e8c2"/><polygon points="350,448.0 368.07,285.53 350.0,283.5" fill="#f8e8c2"/><polygon points="350,448.0 350.0,283.5 331.93,285.53" fill="#f8e8c2"/><polygon points="350,448.0 331.93,285.53 314.31,291.55" fill="#f8e8c2"/><polygon points="350,448.0 314.31,291.55 297.56,301.43" fill="#f8e8c2"/><polygon points="350,448.0 297.56,301.43 282.11,314.92" fill="#f8e8c2"/><polygon points="350,448.0 282.11,314.92 268.33,331.68" fill="#f8e8c2"/><polygon points="350,448.0 268.33,331.68 256.56,351.31" fill="#f8e8c2"/><polygon points="350,448.0 256.56,351.31 247.09,373.32" fill="#f8e8c2"/><polygon points="350,448.0 247.09,373.32 240.15,397.17" fill="#f8e8c2"/><polygon points="350,448.0 240.15,397.17 235.92,422.27" fill="#f8e8c2"/><polygon points="350,448.0 235.92,422.27 234.5,448.0" fill="#f8e8c2"/><polygon points="350,448.0 234.5,448.0 235.92,473.73" fill="#f8e8c2"/><polygon points="350,448.0 235.92,473.73 240.15,498.83" fill="#f8e8c2"/><polygon points="350,448.0 240.15,498.83 247.09,522.68" fill="#f8e8c2"/><polygon points="350,448.0 247.09,522.68 256.56,544.69" fill="#f8e8c2"/><polygon points="350,448.0 256.56,544.69 268.33,564.32" fill="#f8e8c2"/><polygon points="350,448.0 268.33,564.32 282.11,581.08" fill="#f8e8c2"/><polygon points="350,448.0 282.11,581.08 297.56,594.57" fill="#f8e8c2"/><polygon points="350,448.0 297.56,594.57 314.31,604.45" fill="#f8e8c2"/><polygon points="350,448.0 314.31,604.45 331.93,610.47" fill="#f8e8c2"/><polygon points="350,448.0 331.93,610.47 350.0,612.5" fill="#f8e8c2"/><polygon points="350,448.0 350.0,612.5 368.07,610.47" fill="#f8e8c2"/><polygon points="350,448.0 368.07,610.47 385.69,604.45" fill="#f8e8c2"/><polygon points="350,448.0 385.69,604.45 402.44,594.57" fill="#f8e8c2"/><polygon points="350,448.0 402.44,594.57 417.89,581.08" fill="#f8e8c2"/><polygon points="350,448.0 417.89,581.08 431.67,564.32" fill="#f8e8c2"/><polygon points="350,448.0 431.67,564.32 443.44,544.69" fill="#f8e8c2"/><polygon points="350,448.0 443.44,544.69 452.91,522.68" fill="#f8e8c2"/><polygon points="350,448.0 452.91,522.68 459.85,498.83" fill="#f8e8c2"/><polygon points="350,448.0 459.85,498.83 464.08,473.73" fill="#f8e8c2"/><polygon points="350,448.0 464.08,473.73 465.5,448.0" fill="#f8e8c2"/><polygon points="350,217.0 476.0,217.0 474.45,200.57" fill="#f8e8c2"/><polygon points="350,217.0 474.45,200.57 469.83,184.55" fill="#f8e8c2"/><polygon points="350,217.0 469.83,184.55 462.27,169.33" fill="#f8e8c2"/><polygon points="350,217.0 462.27,169.33 451.94,155.28" fill="#f8e8c2"/><polygon points="350,217.0 451.94,155.28 439.1,142.75" fill="#f8e8c2"/><polygon points="350,217.0 439.1,142.75 424.06,132.05" fill="#f8e8c2"/><polygon points="350,217.0 424.06,132.05 407.2,123.44" fill="#f8e8c2"/><polygon points="350,217.0 407.2,123.44 388.94,117.14" fill="#f8e8c2"/><polygon points="350,217.0 388.94,117.14 369.71,113.29" fill="#f8e8c2"/><polygon points="350,217.0 369.71,113.29 350.0,112.0" fill="#f8e8c2"/><polygon points="350,217.0 350.0,112.0 330.29,113.29" fill="#f8e8c2"/><polygon points="350,217.0 330.29,113.29 311.06,117.14" fill="#f8e8c2"/><polygon points="350,217.0 311.06,117.14 292.8,123.44" fill="#f8e8c2"/><polygon points="350,217.0 292.8,123.44 275.94,132.05" fill="#f8e8c2"/><polygon points="350,217.0 275.94,132.05 260.9,142.75" fill="#f8e8c2"/><polygon points="350,217.0 260.9,142.75 248.06,155.28" fill="#f8e8c2"/><polygon points="350,217.0 248.06,155.28 237.73,169.33" fill="#f8e8c2"/><polygon points="350,217.0 237.73,169.33 230.17,184.55" fill="#f8e8c2"/><polygon points="350,217.0 230.17,184.55 225.55,200.57" fill="#f8e8c2"/><polygon points="350,217.0 225.55,200.57 224.0,217.0" fill="#f8e8c2"/><polygon points="350,217.0 224.0,217.0 225.55,233.43" fill="#f8e8c2"/><polygon points="350,217.0 225.55,233.43 230.17,249.45" fill="#f8e8c2"/><polygon points="350,217.0 230.17,249.45 237.73,264.67" fill="#f8e8c2"/><polygon points="350,217.0 237.73,264.67 248.06,278.72" fill="#f8e8c2"/><polygon points="350,217.0 248.06,278.72 260.9,291.25" fill="#f8e8c2"/><polygon points="350,217.0 260.9,291.25 275.94,301.95" fill="#f8e8c2"/><polygon points="350,217.0 275.94,301.95 292.8,310.56" fill="#f8e8c2"/><polygon points="350,217.0 292.8,310.56 311.06,316.86" fill="#f8e8c2"/><polygon points="350,217.0 311.06,316.86 330.29,320.71" fill="#f8e8c2"/><polygon points="350,217.0 330.29,320.71 350.0,322.0" fill="#f8e8c2"/><polygon points="350,217.0 350.0,322.0 369.71,320.71" fill="#f8e8c2"/><polygon points="350,217.0 369.71,320.71 388.94,316.86" fill="#f8e8c2"/><polygon points="350,217.0 388.94,316.86 407.2,310.56" fill="#f8e8c2"/><polygon points="350,217.0 407.2,310.56 424.06,301.95" fill="#f8e8c2"/><polygon points="350,217.0 424.06,301.95 439.1,291.25" fill="#f8e8c2"/><polygon points="350,217.0 439.1,291.25 451.94,278.72" fill="#f8e8c2"/><polygon points="350,217.0 451.94,278.72 462.27,264.67" fill="#f8e8c2"/><polygon points="350,217.0 462.27,264.67 469.83,249.45" fill="#f8e8c2"/><polygon points="350,217.0 469.83,249.45 474.45,233.43" fill="#f8e8c2"/><polygon points="350,217.0 474.45,233.43 476.0,217.0" fill="#f8e8c2"/><polygon points="350,119.0 451.5,119.0 448.96,107.32" fill="#5c3622"/><polygon points="350,119.0 448.96,107.32 441.45,96.22" fill="#5c3622"/><polygon points="350,119.0 441.45,96.22 429.36,86.27" fill="#5c3622"/><polygon points="350,119.0 429.36,86.27 413.28,77.95" fill="#5c3622"/><polygon points="350,119.0 413.28,77.95 394.04,71.7" fill="#5c3622"/><polygon points="350,119.0 394.04,71.7 372.59,67.82" fill="#5c3622"/><polygon points="350,119.0 372.59,67.82 350.0,66.5" fill="#5c3622"/><polygon points="350,119.0 350.0,66.5 327.41,67.82" fill="#5c3622"/><polygon points="350,119.0 327.41,67.82 305.96,71.7" fill="#5c3622"/><polygon points="350,119.0 305.96,71.7 286.72,77.95" fill="#5c3622"/><polygon points="350,119.0 286.72,77.95 270.64,86.27" fill="#5c3622"/><polygon points="350,119.0 270.64,86.27 258.55,96.22" fill="#5c3622"/><polygon points="350,119.0 258.55,96.22 251.04,107.32" fill="#5c3622"/><polygon points="350,119.0 251.04,107.32 248.5,119.0" fill="#5c3622"/><polygon points="350,119.0 248.5,119.0 251.04,130.68" fill="#5c3622"/><polygon points="350,119.0 251.04,130.68 258.55,141.78" fill="#5c3622"/><polygon points="350,119.0 258.55,141.78 270.64,151.73" fill="#5c3622"/><polygon points="350,119.0 270.64,151.73 286.72,160.05" fill="#5c3622"/><polygon points="350,119.0 286.72,160.05 305.96,166.3" fill="#5c3622"/><polygon points="350,119.0 305.96,166.3 327.41,170.18" fill="#5c3622"/><polygon points="350,119.0 327.41,170.18 350.0,171.5" fill="#5c3622"/><polygon points="350,119.0 350.0,171.5 372.59,170.18" fill="#5c3622"/><polygon points="350,119.0 372.59,170.18 394.04,166.3" fill="#5c3622"/><polygon points="350,119.0 394.04,166.3 413.28,160.05" fill="#5c3622"/><polygon points="350,119.0 413.28,160.05 429.36,151.73" fill="#5c3622"/><polygon points="350,119.0 429.36,151.73 441.45,141.78" fill="#5c3622"/><polygon points="350,119.0 441.45,141.78 448.96,130.68" fill="#5c3622"/><polygon points="350,119.0 448.96,130.68 451.5,119.0" fill="#5c3622"/><polygon points="301.0,189.0 371.0,189.0 369.24,171.09" fill="#f8e8c2"/><polygon points="301.0,189.0 369.24,171.09 364.07,154.07" fill="#f8e8c2"/><polygon points="301.0,189.0 364.07,154.07 355.73,138.81" fill="#f8e8c2"/><polygon points="301.0,189.0 355.73,138.81 344.64,126.06" fill="#f8e8c2"/><polygon points="301.0,189.0 344.64,126.06 331.37,116.47" fill="#f8e8c2"/><polygon points="301.0,189.0 331.37,116.47 316.58,110.52" fill="#f8e8c2"/><polygon points="301.0,189.0 316.58,110.52 301.0,108.5" fill="#f8e8c2"/><polygon points="301.0,189.0 301.0,108.5 285.42,110.52" fill="#f8e8c2"/><polygon points="301.0,189.0 285.42,110.52 270.63,116.47" fill="#f8e8c2"/><polygon points="301.0,189.0 270.63,116.47 257.36,126.06" fill="#f8e8c2"/><polygon points="301.0,189.0 257.36,126.06 246.27,138.81" fill="#f8e8c2"/><polygon points="301.0,189.0 246.27,138.81 237.93,154.07" fill="#f8e8c2"/><polygon points="301.0,189.0 237.93,154.07 232.76,171.09" fill="#f8e8c2"/><polygon points="301.0,189.0 232.76,171.09 231.0,189.0" fill="#f8e8c2"/><polygon points="301.0,189.0 231.0,189.0 232.76,206.91" fill="#f8e8c2"/><polygon points="301.0,189.0 232.76,206.91 237.93,223.93" fill="#f8e8c2"/><polygon points="301.0,189.0 237.93,223.93 246.27,239.19" fill="#f8e8c2"/><polygon points="301.0,189.0 246.27,239.19 257.36,251.94" fill="#f8e8c2"/><polygon points="301.0,189.0 257.36,251.94 270.63,261.53" fill="#f8e8c2"/><polygon points="301.0,189.0 270.63,261.53 285.42,267.48" fill="#f8e8c2"/><polygon points="301.0,189.0 285.42,267.48 301.0,269.5" fill="#f8e8c2"/><polygon points="301.0,189.0 301.0,269.5 316.58,267.48" fill="#f8e8c2"/><polygon points="301.0,189.0 316.58,267.48 331.37,261.53" fill="#f8e8c2"/><polygon points="301.0,189.0 331.37,261.53 344.64,251.94" fill="#f8e8c2"/><polygon points="301.0,189.0 344.64,251.94 355.73,239.19" fill="#f8e8c2"/><polygon points="301.0,189.0 355.73,239.19 364.07,223.93" fill="#f8e8c2"/><polygon points="301.0,189.0 364.07,223.93 369.24,206.91" fill="#f8e8c2"/><polygon points="301.0,189.0 369.24,206.91 371.0,189.0" fill="#f8e8c2"/><polygon points="399.0,189.0 469.0,189.0 467.24,171.09" fill="#f8e8c2"/><polygon points="399.0,189.0 467.24,171.09 462.07,154.07" fill="#f8e8c2"/><polygon points="399.0,189.0 462.07,154.07 453.73,138.81" fill="#f8e8c2"/><polygon points="399.0,189.0 453.73,138.81 442.64,126.06" fill="#f8e8c2"/><polygon points="399.0,189.0 442.64,126.06 429.37,116.47" fill="#f8e8c2"/><polygon points="399.0,189.0 429.37,116.47 414.58,110.52" fill="#f8e8c2"/><polygon points="399.0,189.0 414.58,110.52 399.0,108.5" fill="#f8e8c2"/><polygon points="399.0,189.0 399.0,108.5 383.42,110.52" fill="#f8e8c2"/><polygon points="399.0,189.0 383.42,110.52 368.63,116.47" fill="#f8e8c2"/><polygon points="399.0,189.0 368.63,116.47 355.36,126.06" fill="#f8e8c2"/><polygon points="399.0,189.0 355.36,126.06 344.27,138.81" fill="#f8e8c2"/><polygon points="399.0,189.0 344.27,138.81 335.93,154.07" fill="#f8e8c2"/><polygon points="399.0,189.0 335.93,154.07 330.76,171.09" fill="#f8e8c2"/><polygon points="399.0,189.0 330.76,171.09 329.0,189.0" fill="#f8e8c2"/><polygon points="399.0,189.0 329.0,189.0 330.76,206.91" fill="#f8e8c2"/><polygon points="399.0,189.0 330.76,206.91 335.93,223.93" fill="#f8e8c2"/><polygon points="399.0,189.0 335.93,223.93 344.27,239.19" fill="#f8e8c2"/><polygon points="399.0,189.0 344.27,239.19 355.36,251.94" fill="#f8e8c2"/><polygon points="399.0,189.0 355.36,251.94 368.63,261.53" fill="#f8e8c2"/><polygon points="399.0,189.0 368.63,261.53 383.42,267.48" fill="#f8e8c2"/><polygon points="399.0,189.0 383.42,267.48 399.0,269.5" fill="#f8e8c2"/><polygon points="399.0,189.0 399.0,269.5 414.58,267.48" fill="#f8e8c2"/><polygon points="399.0,189.0 414.58,267.48 429.37,261.53" fill="#f8e8c2"/><polygon points="399.0,189.0 429.37,261.53 442.64,251.94" fill="#f8e8c2"/><polygon points="399.0,189.0 442.64,251.94 453.73,239.19" fill="#f8e8c2"/><polygon points="399.0,189.0 453.73,239.19 462.07,223.93" fill="#f8e8c2"/><polygon points="399.0,189.0 462.07,223.93 467.24,206.91" fill="#f8e8c2"/><polygon points="399.0,189.0 467.24,206.91 469.0,189.0" fill="#f8e8c2"/><polygon points="350,45.5 413.0,45.5 411.42,36.15" fill="#5c3622"/><polygon points="350,45.5 411.42,36.15 406.76,27.28" fill="#5c3622"/><polygon points="350,45.5 406.76,27.28 399.26,19.31" fill="#5c3622"/><polygon points="350,45.5 399.26,19.31 389.28,12.66" fill="#5c3622"/><polygon points="350,45.5 389.28,12.66 377.33,7.66" fill="#5c3622"/><polygon points="350,45.5 377.33,7.66 364.02,4.55" fill="#5c3622"/><polygon points="350,45.5 364.02,4.55 350.0,3.5" fill="#5c3622"/><polygon points="350,45.5 350.0,3.5 335.98,4.55" fill="#5c3622"/><polygon points="350,45.5 335.98,4.55 322.67,7.66" fill="#5c3622"/><polygon points="350,45.5 322.67,7.66 310.72,12.66" fill="#5c3622"/><polygon points="350,45.5 310.72,12.66 300.74,19.31" fill="#5c3622"/><polygon points="350,45.5 300.74,19.31 293.24,27.28" fill="#5c3622"/><polygon points="350,45.5 293.24,27.28 288.58,36.15" fill="#5c3622"/><polygon points="350,45.5 288.58,36.15 287.0,45.5" fill="#5c3622"/><polygon points="350,45.5 287.0,45.5 288.58,54.85" fill="#5c3622"/><polygon points="350,45.5 288.58,54.85 293.24,63.72" fill="#5c3622"/><polygon points="350,45.5 293.24,63.72 300.74,71.69" fill="#5c3622"/><polygon points="350,45.5 300.74,71.69 310.72,78.34" fill="#5c3622"/><polygon points="350,45.5 310.72,78.34 322.67,83.34" fill="#5c3622"/><polygon points="350,45.5 322.67,83.34 335.98,86.45" fill="#5c3622"/><polygon points="350,45.5 335.98,86.45 350.0,87.5" fill="#5c3622"/><polygon points="350,45.5 350.0,87.5 364.02,86.45" fill="#5c3622"/><polygon points="350,45.5 364.02,86.45 377.33,83.34" fill="#5c3622"/><polygon points="350,45.5 377.33,83.34 389.28,78.34" fill="#5c3622"/><polygon points="350,45.5 389.28,78.34 399.26,71.69" fill="#5c3622"/><polygon points="350,45.5 399.26,71.69 406.76,63.72" fill="#5c3622"/><polygon points="350,45.5 406.76,63.72 411.42,54.85" fill="#5c3622"/><polygon points="350,45.5 411.42,54.85 413.0,45.5" fill="#5c3622"/><polygon points="301.0,73.5 399.0,73.5 388.5,59.5" fill="#14415f"/><polygon points="301.0,73.5 388.5,59.5 311.5,59.5" fill="#0d2b45"/><polygon points="297.5,185.5 329.0,185.5 327.93,174.63" fill="#fffaeb"/><polygon points="297.5,185.5 327.93,174.63 324.78,164.5" fill="#fffaeb"/><polygon points="297.5,185.5 324.78,164.5 319.77,155.8" fill="#fffaeb"/><polygon points="297.5,185.5 319.77,155.8 313.25,149.13" fill="#fffaeb"/><polygon points="297.5,185.5 313.25,149.13 305.65,144.93" fill="#fffaeb"/><polygon points="297.5,185.5 305.65,144.93 297.5,143.5" fill="#fffaeb"/><polygon points="297.5,185.5 297.5,143.5 289.35,144.93" fill="#fffaeb"/><polygon points="297.5,185.5 289.35,144.93 281.75,149.13" fill="#fffaeb"/><polygon points="297.5,185.5 281.75,149.13 275.23,155.8" fill="#fffaeb"/><polygon points="297.5,185.5 275.23,155.8 270.22,164.5" fill="#fffaeb"/><polygon points="297.5,185.5 270.22,164.5 267.07,174.63" fill="#fffaeb"/><polygon points="297.5,185.5 267.07,174.63 266.0,185.5" fill="#fffaeb"/><polygon points="297.5,185.5 266.0,185.5 267.07,196.37" fill="#fffaeb"/><polygon points="297.5,185.5 267.07,196.37 270.22,206.5" fill="#fffaeb"/><polygon points="297.5,185.5 270.22,206.5 275.23,215.2" fill="#fffaeb"/><polygon points="297.5,185.5 275.23,215.2 281.75,221.87" fill="#fffaeb"/><polygon points="297.5,185.5 281.75,221.87 289.35,226.07" fill="#fffaeb"/><polygon points="297.5,185.5 289.35,226.07 297.5,227.5" fill="#fffaeb"/><polygon points="297.5,185.5 297.5,227.5 305.65,226.07" fill="#fffaeb"/><polygon points="297.5,185.5 305.65,226.07 313.25,221.87" fill="#fffaeb"/><polygon points="297.5,185.5 313.25,221.87 319.77,215.2" fill="#fffaeb"/><polygon points="297.5,185.5 319.77,215.2 324.78,206.5" fill="#fffaeb"/><polygon points="297.5,185.5 324.78,206.5 327.93,196.37" fill="#fffaeb"/><polygon points="297.5,185.5 327.93,196.37 329.0,185.5" fill="#fffaeb"/><polygon points="402.5,185.5 434.0,185.5 432.93,174.63" fill="#fffaeb"/><polygon points="402.5,185.5 432.93,174.63 429.78,164.5" fill="#fffaeb"/><polygon points="402.5,185.5 429.78,164.5 424.77,155.8" fill="#fffaeb"/><polygon points="402.5,185.5 424.77,155.8 418.25,149.13" fill="#fffaeb"/><polygon points="402.5,185.5 418.25,149.13 410.65,144.93" fill="#fffaeb"/><polygon points="402.5,185.5 410.65,144.93 402.5,143.5" fill="#fffaeb"/><polygon points="402.5,185.5 402.5,143.5 394.35,144.93" fill="#fffaeb"/><polygon points="402.5,185.5 394.35,144.93 386.75,149.13" fill="#fffaeb"/><polygon points="402.5,185.5 386.75,149.13 380.23,155.8" fill="#fffaeb"/><polygon points="402.5,185.5 380.23,155.8 375.22,164.5" fill="#fffaeb"/><polygon points="402.5,185.5 375.22,164.5 372.07,174.63" fill="#fffaeb"/><polygon points="402.5,185.5 372.07,174.63 371.0,185.5" fill="#fffaeb"/><polygon points="402.5,185.5 371.0,185.5 372.07,196.37" fill="#fffaeb"/><polygon points="402.5,185.5 372.07,196.37 375.22,206.5" fill="#fffaeb"/><polygon points="402.5,185.5 375.22,206.5 380.23,215.2" fill="#fffaeb"/><polygon points="402.5,185.5 380.23,215.2 386.75,221.87" fill="#fffaeb"/><polygon points="402.5,185.5 386.75,221.87 394.35,226.07" fill="#fffaeb"/><polygon points="402.5,185.5 394.35,226.07 402.5,227.5" fill="#fffaeb"/><polygon points="402.5,185.5 402.5,227.5 410.65,226.07" fill="#fffaeb"/><polygon points="402.5,185.5 410.65,226.07 418.25,221.87" fill="#fffaeb"/><polygon points="402.5,185.5 418.25,221.87 424.77,215.2" fill="#fffaeb"/><polygon points="402.5,185.5 424.77,215.2 429.78,206.5" fill="#fffaeb"/><polygon points="402.5,185.5 429.78,206.5 432.93,196.37" fill="#fffaeb"/><polygon points="402.5,185.5 432.93,196.37 434.0,185.5" fill="#fffaeb"/><polygon points="297.5,192.5 313.95,192.5 313.14,185.15" fill="#5c3622"/><polygon points="297.5,192.5 313.14,185.15 310.81,178.51" fill="#5c3622"/><polygon points="297.5,192.5 310.81,178.51 307.17,173.25" fill="#5c3622"/><polygon points="297.5,192.5 307.17,173.25 302.58,169.86" fill="#5c3622"/><polygon points="297.5,192.5 302.58,169.86 297.5,168.7" fill="#5c3622"/><polygon points="297.5,192.5 297.5,168.7 292.42,169.86" fill="#5c3622"/><polygon points="297.5,192.5 292.42,169.86 287.83,173.25" fill="#5c3622"/><polygon points="297.5,192.5 287.83,173.25 284.19,178.51" fill="#5c3622"/><polygon points="297.5,192.5 284.19,178.51 281.86,185.15" fill="#5c3622"/><polygon points="297.5,192.5 281.86,185.15 281.05,192.5" fill="#5c3622"/><polygon points="297.5,192.5 281.05,192.5 281.86,199.85" fill="#5c3622"/><polygon points="297.5,192.5 281.86,199.85 284.19,206.49" fill="#5c3622"/><polygon points="297.5,192.5 284.19,206.49 287.83,211.75" fill="#5c3622"/><polygon points="297.5,192.5 287.83,211.75 292.42,215.14" fill="#5c3622"/><polygon points="297.5,192.5 292.42,215.14 297.5,216.3" fill="#5c3622"/><polygon points="297.5,192.5 297.5,216.3 302.58,215.14" fill="#5c3622"/><polygon points="297.5,192.5 302.58,215.14 307.17,211.75" fill="#5c3622"/><polygon points="297.5,192.5 307.17,211.75 310.81,206.49" fill="#5c3622"/><polygon points="297.5,192.5 310.81,206.49 313.14,199.85" fill="#5c3622"/><polygon points="297.5,192.5 313.14,199.85 313.95,192.5" fill="#5c3622"/><polygon points="402.5,192.5 418.95,192.5 418.14,185.15" fill="#5c3622"/><polygon points="402.5,192.5 418.14,185.15 415.81,178.51" fill="#5c3622"/><polygon points="402.5,192.5 415.81,178.51 412.17,173.25" fill="#5c3622"/><polygon points="402.5,192.5 412.17,173.25 407.58,169.86" fill="#5c3622"/><polygon points="402.5,192.5 407.58,169.86 402.5,168.7" fill="#5c3622"/><polygon points="402.5,192.5 402.5,168.7 397.42,169.86" fill="#5c3622"/><polygon points="402.5,192.5 397.42,169.86 392.83,173.25" fill="#5c3622"/><polygon points="402.5,192.5 392.83,173.25 389.19,178.51" fill="#5c3622"/><polygon points="402.5,192.5 389.19,178.51 386.86,185.15" fill="#5c3622"/><polygon points="402.5,192.5 386.86,185.15 386.05,192.5" fill="#5c3622"/><polygon points="402.5,192.5 386.05,192.5 386.86,199.85" fill="#5c3622"/><polygon points="402.5,192.5 386.86,199.85 389.19,206.49" fill="#5c3622"/><polygon points="402.5,192.5 389.19,206.49 392.83,211.75" fill="#5c3622"/><polygon points="402.5,192.5 392.83,211.75 397.42,215.14" fill="#5c3622"/><polygon points="402.5,192.5 397.42,215.14 402.5,216.3" fill="#5c3622"/><polygon points="402.5,192.5 402.5,216.3 407.58,215.14" fill="#5c3622"/><polygon points="402.5,192.5 407.58,215.14 412.17,211.75" fill="#5c3622"/><polygon points="402.5,192.5 412.17,211.75 415.81,206.49" fill="#5c3622"/><polygon points="402.5,192.5 415.81,206.49 418.14,199.85" fill="#5c3622"/><polygon points="402.5,192.5 418.14,199.85 418.95,192.5" fill="#5c3622"/><polygon points="297.5,194.25 305.55,194.25 304.94,188.89" fill="#0a2136"/><polygon points="297.5,194.25 304.94,188.89 303.19,184.35" fill="#0a2136"/><polygon points="297.5,194.25 303.19,184.35 300.58,181.32" fill="#0a2136"/><polygon points="297.5,194.25 300.58,181.32 297.5,180.25" fill="#0a2136"/><polygon points="297.5,194.25 297.5,180.25 294.42,181.32" fill="#0a2136"/><polygon points="297.5,194.25 294.42,181.32 291.81,184.35" fill="#0a2136"/><polygon points="297.5,194.25 291.81,184.35 290.06,188.89" fill="#0a2136"/><polygon points="297.5,194.25 290.06,188.89 289.45,194.25" fill="#0a2136"/><polygon points="297.5,194.25 289.45,194.25 290.06,199.61" fill="#0a2136"/><polygon points="297.5,194.25 290.06,199.61 291.81,204.15" fill="#0a2136"/><polygon points="297.5,194.25 291.81,204.15 294.42,207.18" fill="#0a2136"/><polygon points="297.5,194.25 294.42,207.18 297.5,208.25" fill="#0a2136"/><polygon points="297.5,194.25 297.5,208.25 300.58,207.18" fill="#0a2136"/><polygon points="297.5,194.25 300.58,207.18 303.19,204.15" fill="#0a2136"/><polygon points="297.5,194.25 303.19,204.15 304.94,199.61" fill="#0a2136"/><polygon points="297.5,194.25 304.94,199.61 305.55,194.25" fill="#0a2136"/><polygon points="402.5,194.25 410.55,194.25 409.94,188.89" fill="#0a2136"/><polygon points="402.5,194.25 409.94,188.89 408.19,184.35" fill="#0a2136"/><polygon points="402.5,194.25 408.19,184.35 405.58,181.32" fill="#0a2136"/><polygon points="402.5,194.25 405.58,181.32 402.5,180.25" fill="#0a2136"/><polygon points="402.5,194.25 402.5,180.25 399.42,181.32" fill="#0a2136"/><polygon points="402.5,194.25 399.42,181.32 396.81,184.35" fill="#0a2136"/><polygon points="402.5,194.25 396.81,184.35 395.06,188.89" fill="#0a2136"/><polygon points="402.5,194.25 395.06,188.89 394.45,194.25" fill="#0a2136"/><polygon points="402.5,194.25 394.45,194.25 395.06,199.61" fill="#0a2136"/><polygon points="402.5,194.25 395.06,199.61 396.81,204.15" fill="#0a2136"/><polygon points="402.5,194.25 396.81,204.15 399.42,207.18" fill="#0a2136"/><polygon points="402.5,194.25 399.42,207.18 402.5,208.25" fill="#0a2136"/><polygon points="402.5,194.25 402.5,208.25 405.58,207.18" fill="#0a2136"/><polygon points="402.5,194.25 405.58,207.18 408.19,204.15" fill="#0a2136"/><polygon points="402.5,194.25 408.19,204.15 409.94,199.61" fill="#0a2136"/><polygon points="402.5,194.25 409.94,199.61 410.55,194.25" fill="#0a2136"/><polygon points="302.05,186.2 305.55,186.2 305.08,183.57" fill="#ffffff"/><polygon points="302.05,186.2 305.08,183.57 303.8,181.65" fill="#ffffff"/><polygon points="302.05,186.2 303.8,181.65 302.05,180.95" fill="#ffffff"/><polygon points="302.05,186.2 302.05,180.95 300.3,181.65" fill="#ffffff"/><polygon points="302.05,186.2 300.3,181.65 299.02,183.57" fill="#ffffff"/><polygon points="302.05,186.2 299.02,183.57 298.55,186.2" fill="#ffffff"/><polygon points="302.05,186.2 298.55,186.2 299.02,188.82" fill="#ffffff"/><polygon points="302.05,186.2 299.02,188.82 300.3,190.75" fill="#ffffff"/><polygon points="302.05,186.2 300.3,190.75 302.05,191.45" fill="#ffffff"/><polygon points="302.05,186.2 302.05,191.45 303.8,190.75" fill="#ffffff"/><polygon points="302.05,186.2 303.8,190.75 305.08,188.82" fill="#ffffff"/><polygon points="302.05,186.2 305.08,188.82 305.55,186.2" fill="#ffffff"/><polygon points="407.05,186.2 410.55,186.2 410.08,183.57" fill="#ffffff"/><polygon points="407.05,186.2 410.08,183.57 408.8,181.65" fill="#ffffff"/><polygon points="407.05,186.2 408.8,181.65 407.05,180.95" fill="#ffffff"/><polygon points="407.05,186.2 407.05,180.95 405.3,181.65" fill="#ffffff"/><polygon points="407.05,186.2 405.3,181.65 404.02,183.57" fill="#ffffff"/><polygon points="407.05,186.2 404.02,183.57 403.55,186.2" fill="#ffffff"/><polygon points="407.05,186.2 403.55,186.2 404.02,188.82" fill="#ffffff"/><polygon points="407.05,186.2 404.02,188.82 405.3,190.75" fill="#ffffff"/><polygon points="407.05,186.2 405.3,190.75 407.05,191.45" fill="#ffffff"/><polygon points="407.05,186.2 407.05,191.45 408.8,190.75" fill="#ffffff"/><polygon points="407.05,186.2 408.8,190.75 410.08,188.82" fill="#ffffff"/><polygon points="407.05,186.2 410.08,188.82 410.55,186.2" fill="#ffffff"/><polygon points="350,213.5 301.0,248.5 350,266.0" fill="#f88c1d"/><polygon points="350,213.5 350,266.0 399.0,248.5" fill="#fc9e25"/><polygon points="248.5,252.0 273.0,252.0 271.52,247.81" fill="#f07f8b"/><polygon points="248.5,252.0 271.52,247.81 267.27,244.13" fill="#f07f8b"/><polygon points="248.5,252.0 267.27,244.13 260.75,241.39" fill="#f07f8b"/><polygon points="248.5,252.0 260.75,241.39 252.75,239.94" fill="#f07f8b"/><polygon points="248.5,252.0 252.75,239.94 244.25,239.94" fill="#f07f8b"/><polygon points="248.5,252.0 244.25,239.94 236.25,241.39" fill="#f07f8b"/><polygon points="248.5,252.0 236.25,241.39 229.73,244.13" fill="#f07f8b"/><polygon points="248.5,252.0 229.73,244.13 225.48,247.81" fill="#f07f8b"/><polygon points="248.5,252.0 225.48,247.81 224.0,252.0" fill="#f07f8b"/><polygon points="248.5,252.0 224.0,252.0 225.48,256.19" fill="#f07f8b"/><polygon points="248.5,252.0 225.48,256.19 229.73,259.87" fill="#f07f8b"/><polygon points="248.5,252.0 229.73,259.87 236.25,262.61" fill="#f07f8b"/><polygon points="248.5,252.0 236.25,262.61 244.25,264.06" fill="#f07f8b"/><polygon points="248.5,252.0 244.25,264.06 252.75,264.06" fill="#f07f8b"/><polygon points="248.5,252.0 252.75,264.06 260.75,262.61" fill="#f07f8b"/><polygon points="248.5,252.0 260.75,262.61 267.27,259.87" fill="#f07f8b"/><polygon points="248.5,252.0 267.27,259.87 271.52,256.19" fill="#f07f8b"/><polygon points="248.5,252.0 271.52,256.19 273.0,252.0" fill="#f07f8b"/><polygon points="451.5,252.0 476.0,252.0 474.52,247.81" fill="#f07f8b"/><polygon points="451.5,252.0 474.52,247.81 470.27,244.13" fill="#f07f8b"/><polygon points="451.5,252.0 470.27,244.13 463.75,241.39" fill="#f07f8b"/><polygon points="451.5,252.0 463.75,241.39 455.75,239.94" fill="#f07f8b"/><polygon points="451.5,252.0 455.75,239.94 447.25,239.94" fill="#f07f8b"/><polygon points="451.5,252.0 447.25,239.94 439.25,241.39" fill="#f07f8b"/><polygon points="451.5,252.0 439.25,241.39 432.73,244.13" fill="#f07f8b"/><polygon points="451.5,252.0 432.73,244.13 428.48,247.81" fill="#f07f8b"/><polygon points="451.5,252.0 428.48,247.81 427.0,252.0" fill="#f07f8b"/><polygon points="451.5,252.0 427.0,252.0 428.48,256.19" fill="#f07f8b"/><polygon points="451.5,252.0 428.48,256.19 432.73,259.87" fill="#f07f8b"/><polygon points="451.5,252.0 432.73,259.87 439.25,262.61" fill="#f07f8b"/><polygon points="451.5,252.0 439.25,262.61 447.25,264.06" fill="#f07f8b"/><polygon points="451.5,252.0 447.25,264.06 455.75,264.06" fill="#f07f8b"/><polygon points="451.5,252.0 455.75,264.06 463.75,262.61" fill="#f07f8b"/><polygon points="451.5,252.0 463.75,262.61 470.27,259.87" fill="#f07f8b"/><polygon points="451.5,252.0 470.27,259.87 474.52,256.19" fill="#f07f8b"/><polygon points="451.5,252.0 474.52,256.19 476.0,252.0" fill="#f07f8b"/></g></svg>